<?xml version="1.0" ?><svg id="Dashboard" style="enable-background:new 0 0 32 32;" version="1.1" viewBox="0 0 32 32" xml:space="preserve" xmlns="http://www.w3.org/2000/svg" xmlns:xlink="http://www.w3.org/1999/xlink"><style type="text/css">
	.st0{fill:#E4EDF2;}
	.st1{fill:#55C1FA;}
	.st2{fill:#393B3D;}
	.st3{fill:#F25949;}
	.st4{fill:#16F293;}
	.st5{fill:#FBC34E;}
</style><g><path class="st0" d="M2,11.5V29c0,0.55,0.45,1,1,1h26c0.55,0,1-0.45,1-1V11.5H2z M7,23.929h3V19.25c0-0.553,0.448-1,1-1   s1,0.447,1,1v4.679h3v-7.518c0-0.552,0.448-1,1-1s1,0.448,1,1v7.518h3V13.571c0-0.552,0.447-1,1-1s1,0.448,1,1v10.357h3   c0.553,0,1,0.447,1,1s-0.447,1-1,1H7c-0.552,0-1-0.447-1-1S6.448,23.929,7,23.929z"/><path class="st1" d="M29,2H3C2.448,2,2,2.448,2,3v8.5h28V3C30,2.448,29.553,2,29,2z M25.75,7.25H22.5c-0.553,0-1-0.448-1-1   s0.447-1,1-1h3.25c0.553,0,1,0.448,1,1S26.303,7.25,25.75,7.25z"/><path class="st2" d="M25.75,5.25H22.5c-0.553,0-1,0.448-1,1s0.447,1,1,1h3.25c0.553,0,1-0.448,1-1S26.303,5.25,25.75,5.25z"/><path class="st3" d="M12,19.25c0-0.553-0.448-1-1-1s-1,0.447-1,1v4.679h2V19.25z"/><path class="st4" d="M17,16.411c0-0.552-0.448-1-1-1s-1,0.448-1,1v7.518h2V16.411z"/><path class="st5" d="M22,13.571c0-0.552-0.447-1-1-1s-1,0.448-1,1v10.357h2V13.571z"/><path class="st2" d="M7,25.929h18c0.553,0,1-0.447,1-1s-0.447-1-1-1h-3h-2h-3h-2h-3h-2H7c-0.552,0-1,0.447-1,1   S6.448,25.929,7,25.929z"/></g></svg>