<?xml version="1.0" encoding="UTF-8"?>
<svg width="135px" height="135px" viewBox="0 0 135 135" version="1.1" xmlns="http://www.w3.org/2000/svg" xmlns:xlink="http://www.w3.org/1999/xlink">
    <!-- Generator: Sketch 50.2 (55047) - http://www.bohemiancoding.com/sketch -->
    <title>Desktop HD</title>
    <desc>Created with Sketch.</desc>
    <defs>
        <path d="M40.6860941,64.0799758 C40.6860941,67.7413731 37.6504594,70.7089388 33.9050784,70.7089388 L6.78101569,70.7089388 C3.03563469,70.7089388 0,67.7413731 0,64.0799758 L0,6.62896302 C0,2.96756578 3.03563469,0 6.78101569,0 L33.9050784,0 C37.6504594,0 40.6860941,2.96756578 40.6860941,6.62896302 L40.6860941,64.0799758 Z" id="path-1"></path>
    </defs>
    <g id="Desktop-HD" stroke="none" stroke-width="1" fill="none" fill-rule="evenodd">
        <g id="icons/steps/step-1" transform="translate(0.000000, 2.000000)">
            <g id="Group-8" transform="translate(1.000000, 20.000000)">
                <polygon id="Fill-4" fill="#89C8D4" points="40.5856079 82.1627719 65.7084557 82.1627719 65.7084557 69.7722772 40.5856079 69.7722772"></polygon>
                <path d="M106.52824,68.07718 C106.055809,70.2547797 104.113542,71.8861219 101.790937,71.8846793 L4.84702881,71.8846793 C2.52445079,71.8846793 0.582202516,70.2544364 0.109742132,68.07718 L0,68.07718 L0,5.10652174 C-3.45381513e-16,2.28626766 2.28626766,-1.54790797e-15 5.10652174,-7.10542736e-15 L101.706836,-6.2655195e-15 C104.52709,-6.78359177e-15 106.813358,2.28626766 106.813358,5.10652174 L106.813358,68.07718 L106.52824,68.07718 Z" id="Combined-Shape" fill="#89C8D4"></path>
                <path d="M7.17391304,62.3217452 L99.6847826,62.3217452 L99.6847826,7.17391304 L7.17391304,7.17391304 L7.17391304,62.3217452 Z" id="Path-Copy" stroke="#F7F7F7" stroke-width="3" fill="#D2EBF0"></path>
                <path d="M75.4074083,86.6683765 L31.784149,86.6683765 C30.4461758,86.6683765 29.3598015,85.5863533 29.3598015,84.2500298 C29.3598015,82.9137063 30.4445096,81.8316832 31.784149,81.8316832 L75.4090745,81.8316832 C76.7470477,81.8316832 77.8317558,82.9137063 77.8317558,84.2500298 C77.8317558,85.5846912 76.7470477,86.6683765 75.4074083,86.6683765 Z" id="Fill-8" fill="#89C8D4"></path>
            </g>
            <g id="Group-9" transform="translate(93.000000, 44.000000)">
                <mask id="mask-2" fill="white">
                    <use xlink:href="#path-1"></use>
                </mask>
                <use id="Fill-20" fill="#20395F" xlink:href="#path-1"></use>
                <path d="M1.8,56.1350223 L38.8860941,56.1350223 L38.8860941,10.9612903 L1.8,10.9612903 L1.8,56.1350223 Z" id="Fill-21" stroke="#20395F" stroke-width="3.6" fill="#FFFFFF" mask="url(#mask-2)"></path>
                <path d="M23.5,62.25 C23.5,64.0448125 22.0452187,65.5 20.25,65.5 C18.4551875,65.5 17,64.0448125 17,62.25 C17,60.4547812 18.4551875,59 20.25,59 C22.0452187,59 23.5,60.4547812 23.5,62.25 Z" id="Fill-24" fill="#89C8D4" mask="url(#mask-2)"></path>
                <path d="M27.6666667,4.89873418 C27.6666667,5.39483544 27.1564444,5.79746835 26.5277778,5.79746835 L15.1388889,5.79746835 C14.5102222,5.79746835 14,5.39483544 14,4.89873418 C14,4.40263291 14.5102222,4 15.1388889,4 L26.5277778,4 C27.1564444,4 27.6666667,4.40263291 27.6666667,4.89873418" id="Fill-23" fill="#000000" mask="url(#mask-2)"></path>
            </g>
        </g>
    </g>
</svg>